<svg width="44" height="45" viewBox="0 0 44 45" fill="none" xmlns="http://www.w3.org/2000/svg">
<path d="M43.3947 42.5222C43.4342 42.4695 43.4406 42.4015 43.4105 42.3468C43.382 42.2879 43.3219 42.2566 43.2582 42.2588C43.2582 42.2588 43.2024 42.2622 43.0912 42.2635C42.978 42.2662 42.8106 42.268 42.5905 42.2653C42.1523 42.261 41.5118 42.2388 40.6984 42.1698C40.121 42.121 39.4586 42.049 38.7185 41.9442C38.7261 41.9357 38.7316 41.9269 38.7393 41.9184C29.6833 40.7095 21.8922 36.4312 15.8444 30.6947C15.7928 30.6465 15.7417 30.5954 15.6905 30.5467C15.5216 30.3854 15.3527 30.2233 15.1868 30.0591C15.0225 29.8991 14.8574 29.7457 14.6931 29.5815L14.6927 29.5819L14.6931 29.5815C8.94527 23.8336 5.79696 17.7866 4.07431 12.7414C2.80481 9.14917 2.09973 5.55802 2.0223 2.17752C2.0163 1.99558 2.01187 1.82536 2.01055 1.68447C2.00864 1.46517 2.01047 1.29784 2.01311 1.1846C2.01531 1.07345 2.0183 1.01807 2.01747 1.01724C2.0201 0.953898 1.98707 0.892954 1.93027 0.865759C1.87559 0.835611 1.80719 0.841642 1.75485 0.881504C1.56365 1.0278 1.33176 1.22476 1.0835 1.47302L1.0264 1.53011L1.00864 1.54788C0.379533 2.20193 0.0963572 2.90841 0.125107 4.01817C0.118947 4.2996 -0.205203 19.9266 12.0692 32.2062L12.0714 32.204L12.0692 32.2062C24.3483 44.481 39.9766 44.1573 40.2581 44.1511C41.3682 44.1803 42.0751 43.8967 42.7279 43.2672L42.7457 43.2494L42.8028 43.1923C43.0506 42.9436 43.2497 42.7138 43.3947 42.5222Z" fill="#333333"/>
</svg>
