<svg width="106" height="27" viewBox="0 0 106 27" fill="none" xmlns="http://www.w3.org/2000/svg">
<path d="M25.1205 2.84082L15.7192 26.2252H9.67958L0.347778 2.84082H6.83947L12.8559 19.7217L18.9766 2.84082H25.1205Z" fill="#FF7020"/>
<path d="M22.7905 17.9614V17.0927C22.7905 12.2797 26.3494 8.13574 31.9137 8.13574C37.6519 8.13574 41.1759 11.8688 41.1759 16.8227V17.6562C41.1759 22.5397 37.5939 26.6483 31.9832 26.6483C26.3146 26.6483 22.7905 22.9153 22.7905 17.9614ZM35.8435 17.6562V17.1044C35.8435 14.5805 34.406 13.0192 32.018 13.0192C29.63 13.0192 28.1578 14.6744 28.1578 17.1044V17.6562C28.1578 20.2153 29.5257 21.7766 31.9484 21.7766C34.3481 21.7649 35.8435 20.1097 35.8435 17.6562Z" fill="#FF7020"/>
<path d="M53.6145 19.0414L48.3516 19.4171C48.8616 21.1427 50.2991 22.1171 52.9305 22.1171C54.878 22.1171 56.072 21.9058 57.9848 21.2484V25.6388C56.443 26.261 54.6694 26.6366 52.2813 26.6366C46.4388 26.6366 43.1582 23.3849 43.1582 17.844V17.0458C43.1582 11.681 47.4242 8.12402 52.5596 8.12402C56.8255 8.12402 59.6656 10.3427 59.6656 13.5945C59.6656 17.1632 57.4399 18.7597 53.6145 19.0414ZM52.7334 15.4727C54.1361 15.3319 54.9939 14.8505 54.9939 13.6766C54.9939 12.7727 54.0666 12.1505 52.5712 12.1505C50.1831 12.1505 48.5718 13.5358 48.2009 15.8836L52.7334 15.4727Z" fill="#FF7020"/>
<path d="M80.7752 19.7217C80.7752 23.7013 77.4946 26.2252 72.9504 26.2252H62.1232V2.84082H71.3854C76.4049 2.84082 79.5812 5.22386 79.5812 9.03908C79.5812 10.976 78.4915 12.6665 76.5788 13.7113C79.3493 14.7091 80.7752 16.963 80.7752 19.7217ZM67.2817 7.61865V11.9386H71.5245C73.3677 11.9386 74.3646 11.1052 74.3646 9.71995C74.3646 8.54604 73.3793 7.60691 71.4897 7.60691H67.2817V7.61865ZM75.4195 19.0408C75.4195 17.726 74.3646 16.7869 72.2085 16.7869H67.2933V21.3886H72.2432C74.3183 21.3886 75.4195 20.5552 75.4195 19.0408Z" fill="#9A9187"/>
<path d="M82.6531 3.19341C82.6531 1.45602 83.9166 0.352539 85.7366 0.352539C87.5102 0.352539 88.8086 1.45602 88.8086 3.19341C88.8086 4.9308 87.5102 6.03428 85.7366 6.03428C83.8819 6.02254 82.6531 4.91906 82.6531 3.19341ZM83.0008 8.48776H88.4376V26.2373H83.0008V8.48776Z" fill="#9A9187"/>
<path d="M91.1967 21.7995L99.3576 13.183H91.4633V8.4873H105.339V12.8777L97.3754 21.5295H105.641V26.2369H91.1967V21.7995Z" fill="#9A9187"/>
</svg>
